<mxfile host="app.diagrams.net" modified="2022-12-22T12:12:53.385Z" agent="5.0 (Windows NT 10.0; Win64; x64) AppleWebKit/537.36 (KHTML, like Gecko) Chrome/108.0.0.0 Safari/537.36" etag="0f4rTfMY1zXmqSlQ3lhM" version="20.7.4" type="github">
  <diagram id="kgpKYQtTHZ0yAKxKKP6v" name="Page-1">
    <mxGraphModel dx="1235" dy="684" grid="1" gridSize="10" guides="1" tooltips="1" connect="1" arrows="1" fold="1" page="1" pageScale="1" pageWidth="1000" pageHeight="500" math="0" shadow="0">
      <root>
        <mxCell id="0" />
        <mxCell id="1" parent="0" />
        <mxCell id="vwlu7_VKPTwD4sSRkWJh-22" value="&lt;span style=&quot;font-family: &amp;#34;verdana&amp;#34; ; text-align: center&quot;&gt;&amp;nbsp;2: نوع غذا، تعداد و قیمت)&amp;nbsp;&lt;/span&gt;&lt;span style=&quot;font-family: &amp;#34;verdana&amp;#34; ; text-align: center&quot;&gt;تنظیم منوی روزانه)&lt;/span&gt;" style="text;whiteSpace=wrap;html=1;" parent="1" vertex="1">
          <mxGeometry x="420" y="160" width="216" height="30" as="geometry" />
        </mxCell>
        <mxCell id="vwlu7_VKPTwD4sSRkWJh-11" value="Product Prototype" style="shape=note;whiteSpace=wrap;html=1;size=14;verticalAlign=top;align=left;spacingTop=-6;rounded=0;shadow=0;comic=0;labelBackgroundColor=none;strokeWidth=1;fontFamily=Verdana;fontSize=12" parent="1" vertex="1">
          <mxGeometry width="150" height="40" as="geometry" />
        </mxCell>
        <mxCell id="yDUGrnm4ATClAlPOhV2n-1" style="edgeStyle=orthogonalEdgeStyle;rounded=0;orthogonalLoop=1;jettySize=auto;html=1;exitX=1;exitY=0.5;exitDx=0;exitDy=0;" edge="1" parent="1" source="vwlu7_VKPTwD4sSRkWJh-13">
          <mxGeometry relative="1" as="geometry">
            <mxPoint x="300" y="390" as="targetPoint" />
            <Array as="points">
              <mxPoint x="170" y="390" />
              <mxPoint x="431" y="390" />
            </Array>
          </mxGeometry>
        </mxCell>
        <mxCell id="vwlu7_VKPTwD4sSRkWJh-13" value="" style="rounded=0;whiteSpace=wrap;html=1;" parent="1" vertex="1">
          <mxGeometry x="40" y="335" width="120" height="108" as="geometry" />
        </mxCell>
        <mxCell id="vwlu7_VKPTwD4sSRkWJh-14" value="" style="rounded=1;whiteSpace=wrap;html=1;fillColor=none;" parent="1" vertex="1">
          <mxGeometry x="300" y="254" width="400" height="270" as="geometry" />
        </mxCell>
        <mxCell id="y0HZ8nVy2wqByaOHlm_5-2" value="" style="rounded=0;whiteSpace=wrap;html=1;" parent="1" vertex="1">
          <mxGeometry x="580" y="359" width="70" height="20" as="geometry" />
        </mxCell>
        <mxCell id="yDUGrnm4ATClAlPOhV2n-12" value="" style="rounded=0;whiteSpace=wrap;html=1;" vertex="1" parent="1">
          <mxGeometry x="330" y="315" width="120" height="108" as="geometry" />
        </mxCell>
        <mxCell id="yDUGrnm4ATClAlPOhV2n-13" value="" style="rounded=0;whiteSpace=wrap;html=1;" vertex="1" parent="1">
          <mxGeometry x="340" y="325" width="120" height="108" as="geometry" />
        </mxCell>
        <mxCell id="yDUGrnm4ATClAlPOhV2n-14" value="" style="rounded=0;whiteSpace=wrap;html=1;" vertex="1" parent="1">
          <mxGeometry x="350" y="335" width="120" height="108" as="geometry" />
        </mxCell>
        <mxCell id="yDUGrnm4ATClAlPOhV2n-15" value="" style="rounded=0;whiteSpace=wrap;html=1;" vertex="1" parent="1">
          <mxGeometry x="360" y="345" width="120" height="108" as="geometry" />
        </mxCell>
        <mxCell id="yDUGrnm4ATClAlPOhV2n-16" value="" style="rounded=0;whiteSpace=wrap;html=1;" vertex="1" parent="1">
          <mxGeometry x="370" y="355" width="120" height="108" as="geometry" />
        </mxCell>
        <mxCell id="yDUGrnm4ATClAlPOhV2n-17" value="" style="rounded=0;whiteSpace=wrap;html=1;" vertex="1" parent="1">
          <mxGeometry x="590" y="369" width="70" height="20" as="geometry" />
        </mxCell>
        <mxCell id="yDUGrnm4ATClAlPOhV2n-18" value="" style="rounded=0;whiteSpace=wrap;html=1;" vertex="1" parent="1">
          <mxGeometry x="600" y="379" width="70" height="20" as="geometry" />
        </mxCell>
        <mxCell id="yDUGrnm4ATClAlPOhV2n-19" value="" style="rounded=0;whiteSpace=wrap;html=1;" vertex="1" parent="1">
          <mxGeometry x="610" y="389" width="70" height="20" as="geometry" />
        </mxCell>
        <mxCell id="yDUGrnm4ATClAlPOhV2n-20" value="" style="rounded=0;whiteSpace=wrap;html=1;" vertex="1" parent="1">
          <mxGeometry x="620" y="399" width="70" height="20" as="geometry" />
        </mxCell>
        <mxCell id="yDUGrnm4ATClAlPOhV2n-22" value="" style="ellipse;whiteSpace=wrap;html=1;aspect=fixed;" vertex="1" parent="1">
          <mxGeometry x="780" y="325.5" width="35" height="35" as="geometry" />
        </mxCell>
        <mxCell id="yDUGrnm4ATClAlPOhV2n-23" value="" style="ellipse;whiteSpace=wrap;html=1;aspect=fixed;" vertex="1" parent="1">
          <mxGeometry x="780" y="410.5" width="35" height="35" as="geometry" />
        </mxCell>
        <mxCell id="yDUGrnm4ATClAlPOhV2n-25" value="" style="ellipse;whiteSpace=wrap;html=1;aspect=fixed;" vertex="1" parent="1">
          <mxGeometry x="780" y="368.5" width="35" height="35" as="geometry" />
        </mxCell>
        <mxCell id="yDUGrnm4ATClAlPOhV2n-30" value="" style="ellipse;whiteSpace=wrap;html=1;aspect=fixed;" vertex="1" parent="1">
          <mxGeometry x="899" y="325" width="35" height="35" as="geometry" />
        </mxCell>
        <mxCell id="yDUGrnm4ATClAlPOhV2n-31" value="" style="ellipse;whiteSpace=wrap;html=1;aspect=fixed;" vertex="1" parent="1">
          <mxGeometry x="899" y="410" width="35" height="35" as="geometry" />
        </mxCell>
        <mxCell id="yDUGrnm4ATClAlPOhV2n-32" value="" style="ellipse;whiteSpace=wrap;html=1;aspect=fixed;" vertex="1" parent="1">
          <mxGeometry x="899" y="368" width="35" height="35" as="geometry" />
        </mxCell>
        <mxCell id="yDUGrnm4ATClAlPOhV2n-33" style="edgeStyle=orthogonalEdgeStyle;rounded=0;orthogonalLoop=1;jettySize=auto;html=1;exitX=1;exitY=0.5;exitDx=0;exitDy=0;entryX=0;entryY=0.5;entryDx=0;entryDy=0;" edge="1" parent="1" source="yDUGrnm4ATClAlPOhV2n-22" target="yDUGrnm4ATClAlPOhV2n-30">
          <mxGeometry relative="1" as="geometry">
            <mxPoint x="934" y="251" as="targetPoint" />
            <mxPoint x="794" y="250" as="sourcePoint" />
            <Array as="points">
              <mxPoint x="860" y="343" />
              <mxPoint x="860" y="343" />
            </Array>
          </mxGeometry>
        </mxCell>
        <mxCell id="yDUGrnm4ATClAlPOhV2n-34" style="edgeStyle=orthogonalEdgeStyle;rounded=0;orthogonalLoop=1;jettySize=auto;html=1;exitX=1;exitY=0.5;exitDx=0;exitDy=0;entryX=0;entryY=0.5;entryDx=0;entryDy=0;" edge="1" parent="1" source="yDUGrnm4ATClAlPOhV2n-25" target="yDUGrnm4ATClAlPOhV2n-32">
          <mxGeometry relative="1" as="geometry">
            <mxPoint x="909.0000000000032" y="352.5" as="targetPoint" />
            <mxPoint x="824.9999999999968" y="353" as="sourcePoint" />
            <Array as="points">
              <mxPoint x="860" y="386" />
              <mxPoint x="860" y="386" />
            </Array>
          </mxGeometry>
        </mxCell>
        <mxCell id="yDUGrnm4ATClAlPOhV2n-35" style="edgeStyle=orthogonalEdgeStyle;rounded=0;orthogonalLoop=1;jettySize=auto;html=1;exitX=1;exitY=0.5;exitDx=0;exitDy=0;entryX=0;entryY=0.5;entryDx=0;entryDy=0;" edge="1" parent="1" source="yDUGrnm4ATClAlPOhV2n-23" target="yDUGrnm4ATClAlPOhV2n-31">
          <mxGeometry relative="1" as="geometry">
            <mxPoint x="919.0000000000032" y="362.5" as="targetPoint" />
            <mxPoint x="834.9999999999968" y="363" as="sourcePoint" />
            <Array as="points">
              <mxPoint x="860" y="428" />
              <mxPoint x="860" y="428" />
            </Array>
          </mxGeometry>
        </mxCell>
        <mxCell id="yDUGrnm4ATClAlPOhV2n-37" value="" style="endArrow=classic;html=1;rounded=0;entryX=0;entryY=0.5;entryDx=0;entryDy=0;exitX=1;exitY=0.5;exitDx=0;exitDy=0;" edge="1" parent="1" source="yDUGrnm4ATClAlPOhV2n-25" target="yDUGrnm4ATClAlPOhV2n-30">
          <mxGeometry width="50" height="50" relative="1" as="geometry">
            <mxPoint x="815" y="385" as="sourcePoint" />
            <mxPoint x="865" y="335" as="targetPoint" />
          </mxGeometry>
        </mxCell>
        <mxCell id="yDUGrnm4ATClAlPOhV2n-39" value="" style="endArrow=classic;html=1;rounded=0;exitX=1;exitY=0.5;exitDx=0;exitDy=0;entryX=0;entryY=0.5;entryDx=0;entryDy=0;" edge="1" parent="1" source="yDUGrnm4ATClAlPOhV2n-23" target="yDUGrnm4ATClAlPOhV2n-32">
          <mxGeometry width="50" height="50" relative="1" as="geometry">
            <mxPoint x="480" y="320" as="sourcePoint" />
            <mxPoint x="530" y="270" as="targetPoint" />
          </mxGeometry>
        </mxCell>
        <mxCell id="yDUGrnm4ATClAlPOhV2n-40" value="" style="endArrow=classic;html=1;rounded=0;entryX=0;entryY=0.5;entryDx=0;entryDy=0;exitX=1;exitY=0.5;exitDx=0;exitDy=0;" edge="1" parent="1" source="yDUGrnm4ATClAlPOhV2n-22" target="yDUGrnm4ATClAlPOhV2n-32">
          <mxGeometry width="50" height="50" relative="1" as="geometry">
            <mxPoint x="480" y="320" as="sourcePoint" />
            <mxPoint x="530" y="270" as="targetPoint" />
          </mxGeometry>
        </mxCell>
        <mxCell id="yDUGrnm4ATClAlPOhV2n-41" value="" style="endArrow=classic;html=1;rounded=0;entryX=0;entryY=0.5;entryDx=0;entryDy=0;exitX=1;exitY=0.5;exitDx=0;exitDy=0;" edge="1" parent="1" source="yDUGrnm4ATClAlPOhV2n-25" target="yDUGrnm4ATClAlPOhV2n-31">
          <mxGeometry width="50" height="50" relative="1" as="geometry">
            <mxPoint x="480" y="320" as="sourcePoint" />
            <mxPoint x="530" y="270" as="targetPoint" />
          </mxGeometry>
        </mxCell>
        <mxCell id="yDUGrnm4ATClAlPOhV2n-42" value="" style="endArrow=classic;html=1;rounded=0;entryX=0;entryY=0.5;entryDx=0;entryDy=0;exitX=1;exitY=0.5;exitDx=0;exitDy=0;" edge="1" parent="1" source="yDUGrnm4ATClAlPOhV2n-22" target="yDUGrnm4ATClAlPOhV2n-31">
          <mxGeometry width="50" height="50" relative="1" as="geometry">
            <mxPoint x="480" y="320" as="sourcePoint" />
            <mxPoint x="530" y="270" as="targetPoint" />
          </mxGeometry>
        </mxCell>
        <mxCell id="yDUGrnm4ATClAlPOhV2n-43" value="" style="endArrow=classic;html=1;rounded=0;exitX=1;exitY=0.5;exitDx=0;exitDy=0;entryX=0;entryY=0.5;entryDx=0;entryDy=0;" edge="1" parent="1" source="yDUGrnm4ATClAlPOhV2n-23" target="yDUGrnm4ATClAlPOhV2n-30">
          <mxGeometry width="50" height="50" relative="1" as="geometry">
            <mxPoint x="480" y="320" as="sourcePoint" />
            <mxPoint x="530" y="270" as="targetPoint" />
          </mxGeometry>
        </mxCell>
      </root>
    </mxGraphModel>
  </diagram>
</mxfile>
